<svg width="1024" height="1024" viewBox="0 0 1024 1024" fill="none" xmlns="http://www.w3.org/2000/svg">
<path fill-rule="evenodd" clip-rule="evenodd" d="M924 356.627C924 346.845 924.004 337.062 923.944 327.279C923.895 319.038 923.8 310.799 923.576 302.562C923.092 284.609 922.033 266.502 918.84 248.749C915.602 230.741 910.314 213.98 901.981 197.617C893.789 181.534 883.088 166.817 870.32 154.058C857.555 141.299 842.834 130.605 826.746 122.418C810.366 114.083 793.587 108.797 775.558 105.56C757.803 102.372 739.691 101.315 721.738 100.83C713.495 100.607 705.253 100.513 697.008 100.462C687.22 100.402 677.432 100.407 667.644 100.407L553.997 100H468.997L357.361 100.407C347.554 100.407 337.747 100.402 327.94 100.462C319.678 100.513 311.42 100.607 303.161 100.83C285.167 101.315 267.014 102.373 249.217 105.565C231.164 108.801 214.36 114.085 197.958 122.414C181.835 130.602 167.083 141.297 154.291 154.058C141.501 166.816 130.78 181.53 122.573 197.61C114.217 213.981 108.919 230.752 105.673 248.77C102.477 266.516 101.418 284.617 100.931 302.562C100.709 310.8 100.613 319.039 100.563 327.279C100.503 337.063 100 349.216 100 358.999L100.003 469.089L100 554.998L100.508 667.427C100.508 677.223 100.504 687.019 100.563 696.815C100.613 705.067 100.709 713.317 100.932 721.566C101.418 739.542 102.479 757.675 105.678 775.452C108.923 793.484 114.22 810.269 122.569 826.653C130.777 842.759 141.5 857.495 154.291 870.272C167.082 883.049 181.83 893.757 197.95 901.956C214.362 910.302 231.174 915.595 249.238 918.836C267.027 922.029 285.174 923.088 303.161 923.573C311.42 923.796 319.679 923.891 327.941 923.941C337.748 924.001 347.554 923.997 357.361 923.997L470.006 924H555.217L667.644 923.996C677.432 923.996 687.22 924.001 697.008 923.941C705.253 923.891 713.495 923.796 721.738 923.573C739.698 923.087 757.816 922.027 775.579 918.832C793.597 915.591 810.368 910.3 826.739 901.959C842.831 893.761 857.554 883.051 870.32 870.272C883.086 857.497 893.786 842.763 901.978 826.66C910.316 810.268 915.604 793.475 918.844 775.431C922.034 757.661 923.092 739.535 923.577 721.566C923.8 713.316 923.895 705.066 923.944 696.815C924.005 687.019 924 677.223 924 667.427C924 667.427 923.994 556.983 923.994 554.998V468.999C923.994 467.533 924 356.627 924 356.627Z" fill="url(#paint0_linear)"/>
<g clip-path="url(#clip0)">
<path fill-rule="evenodd" clip-rule="evenodd" d="M560.819 353.181C564.854 345.106 573.136 340 582.199 340C615.631 340 694.124 340 694.124 340C702.389 340 710.067 344.254 714.42 351.246C718.773 358.237 719.183 366.972 715.503 374.337C675.677 454.04 577.039 651.443 533.379 738.819C529.344 746.894 521.063 752 512 752C502.937 752 494.656 746.894 490.621 738.819C446.961 651.442 348.323 454.04 308.497 374.337C304.817 366.972 305.227 358.237 309.58 351.246C313.933 344.254 321.611 340 329.876 340C329.876 340 408.369 340 441.801 340C450.864 340 459.146 345.106 463.181 353.181C473.073 372.979 490.621 408.096 490.621 408.096C494.656 416.172 502.937 421.277 512 421.277C521.063 421.277 529.344 416.172 533.379 408.096C533.379 408.096 550.927 372.979 560.819 353.181Z" fill="url(#paint1_linear)"/>
<mask id="mask0" mask-type="alpha" maskUnits="userSpaceOnUse" x="306" y="340" width="412" height="412">
<path fill-rule="evenodd" clip-rule="evenodd" d="M560.819 353.181C564.854 345.106 573.136 340 582.199 340C615.631 340 694.124 340 694.124 340C702.389 340 710.067 344.254 714.42 351.246C718.773 358.237 719.183 366.972 715.503 374.337C675.677 454.04 577.039 651.443 533.379 738.819C529.344 746.894 521.063 752 512 752C502.937 752 494.656 746.894 490.621 738.819C446.961 651.442 348.323 454.04 308.497 374.337C304.817 366.972 305.227 358.237 309.58 351.246C313.933 344.254 321.611 340 329.876 340C329.876 340 408.369 340 441.801 340C450.864 340 459.146 345.106 463.181 353.181C473.073 372.979 490.621 408.096 490.621 408.096C494.656 416.172 502.937 421.277 512 421.277C521.063 421.277 529.344 416.172 533.379 408.096C533.379 408.096 550.927 372.979 560.819 353.181Z" fill="white"/>
</mask>
<g mask="url(#mask0)">
<path fill-rule="evenodd" clip-rule="evenodd" d="M394.8 340H291.349L497.227 752H600.679L394.8 340Z" fill="url(#paint2_linear)"/>
</g>
</g>
<defs>
<linearGradient id="paint0_linear" x1="283.34" y1="100" x2="615" y2="762.29" gradientUnits="userSpaceOnUse">
<stop stop-color="white"/>
<stop offset="1" stop-color="#DFDFDF"/>
</linearGradient>
<linearGradient id="paint1_linear" x1="394.992" y1="340" x2="563.088" y2="674.544" gradientUnits="userSpaceOnUse">
<stop stop-color="#666666"/>
<stop offset="1"/>
</linearGradient>
<linearGradient id="paint2_linear" x1="342.904" y1="391.5" x2="615.583" y2="621.818" gradientUnits="userSpaceOnUse">
<stop stop-color="#E698E8"/>
<stop offset="1" stop-color="#8D5FBC"/>
</linearGradient>
<clipPath id="clip0">
<rect width="412" height="412" fill="white" transform="translate(306 340)"/>
</clipPath>
</defs>
</svg>
